<?xml version="1.0" encoding="UTF-8" standalone="no"?>
<svg
   xmlns:osb="http://www.openswatchbook.org/uri/2009/osb"
   xmlns:dc="http://purl.org/dc/elements/1.1/"
   xmlns:cc="http://creativecommons.org/ns#"
   xmlns:rdf="http://www.w3.org/1999/02/22-rdf-syntax-ns#"
   xmlns:svg="http://www.w3.org/2000/svg"
   xmlns="http://www.w3.org/2000/svg"
   xmlns:xlink="http://www.w3.org/1999/xlink"
   xmlns:sodipodi="http://sodipodi.sourceforge.net/DTD/sodipodi-0.dtd"
   xmlns:inkscape="http://www.inkscape.org/namespaces/inkscape"
   version="1.1"
   id="svg2"
   height="297mm"
   width="210mm"
   sodipodi:docname="logo_ba_blanc_danseurs_seuls.svg"
   inkscape:version="0.92.5 (2060ec1f9f, 2020-04-08)">
  <sodipodi:namedview
     pagecolor="#ffffff"
     bordercolor="#666666"
     borderopacity="1"
     objecttolerance="10"
     gridtolerance="10"
     guidetolerance="10"
     inkscape:pageopacity="0"
     inkscape:pageshadow="2"
     inkscape:window-width="1890"
     inkscape:window-height="906"
     id="namedview193"
     showgrid="false"
     inkscape:zoom="1.1893044"
     inkscape:cx="492.45524"
     inkscape:cy="704.64397"
     inkscape:window-x="0"
     inkscape:window-y="37"
     inkscape:window-maximized="0"
     inkscape:current-layer="layer3" />
  <defs
     id="defs4">
    <linearGradient
       id="linearGradient4027">
      <stop
         id="stop4029"
         offset="0"
         style="stop-color:#ffffff;stop-opacity:1" />
      <stop
         style="stop-color:#ffcc00;stop-opacity:1"
         offset="0.7465983"
         id="stop4063" />
      <stop
         id="stop4031"
         offset="1"
         style="stop-color:#ff6600;stop-opacity:1" />
    </linearGradient>
    <linearGradient
       id="linearGradient3932">
      <stop
         style="stop-color:#ffcc00;stop-opacity:0.84761906;"
         offset="0"
         id="stop3941" />
      <stop
         id="stop3945"
         offset="0.25"
         style="stop-color:#ffcc00;stop-opacity:0.63529412;" />
      <stop
         id="stop3943"
         offset="0.5"
         style="stop-color:#ffcc00;stop-opacity:0.42352941;" />
      <stop
         id="stop3937"
         offset="1"
         style="stop-color:#ffcc00;stop-opacity:0;" />
    </linearGradient>
    <linearGradient
       id="linearGradient3872">
      <stop
         style="stop-color:#ffcc00;stop-opacity:0.3254902;"
         offset="0"
         id="stop3898" />
      <stop
         id="stop3900"
         offset="0.25"
         style="stop-color:#ffcc00;stop-opacity:0.27058824;" />
      <stop
         style="stop-color:#ffcc00;stop-opacity:0.21568627;"
         offset="0.5"
         id="stop3896" />
      <stop
         id="stop3876"
         offset="1"
         style="stop-color:#ffcc00;stop-opacity:0;" />
    </linearGradient>
    <linearGradient
       id="linearGradient3935">
      <stop
         style="stop-color:#ffc047;stop-opacity:0.4822695;"
         offset="0"
         id="stop3934" />
      <stop
         id="stop3938"
         offset="0.25"
         style="stop-color:#ffcc2a;stop-opacity:0.37254902;" />
      <stop
         id="stop3936"
         offset="0.6785714"
         style="stop-color:#ffcc2a;stop-opacity:0.70921987;" />
      <stop
         id="stop3939"
         offset="1"
         style="stop-color:#ffd42a;stop-opacity:0;" />
    </linearGradient>
    <linearGradient
       id="linearGradient5619">
      <stop
         id="stop5621"
         offset="0"
         style="stop-color:#ffffff;stop-opacity:1;" />
      <stop
         id="stop5623"
         offset="1"
         style="stop-color:#ffffff;stop-opacity:0;" />
    </linearGradient>
    <linearGradient
       id="linearGradient7661">
      <stop
         style="stop-color:#e6f727;stop-opacity:1;"
         offset="0"
         id="stop7663" />
      <stop
         style="stop-color:#e6f727;stop-opacity:0;"
         offset="1"
         id="stop7665" />
    </linearGradient>
    <linearGradient
       id="linearGradient7643"
       osb:paint="solid">
      <stop
         style="stop-color:#f7b027;stop-opacity:1;"
         offset="0"
         id="stop7645" />
    </linearGradient>
    <linearGradient
       id="linearGradient7665"
       osb:paint="solid">
      <stop
         style="stop-color:#000000;stop-opacity:1;"
         offset="0"
         id="stop7667" />
    </linearGradient>
    <filter
       id="filter5310"
       color-interpolation-filters="sRGB">
      <feSpecularLighting
         id="feSpecularLighting5312"
         in="SourceAlpha"
         surfaceScale="1"
         specularConstant="2"
         specularExponent="18.5"
         result="result1">
        <feDistantLight
           id="feDistantLight5314"
           elevation="30"
           azimuth="225" />
      </feSpecularLighting>
      <feComposite
         id="feComposite5316"
         in2="SourceGraphic"
         result="result0"
         operator="atop" />
      <feMorphology
         id="feMorphology5318"
         radius="2"
         result="result1"
         in="SourceAlpha"
         operator="dilate" />
      <feComposite
         id="feComposite5320"
         in2="result1"
         in="result0" />
    </filter>
    <filter
       id="filter5322"
       color-interpolation-filters="sRGB">
      <feSpecularLighting
         id="feSpecularLighting5324"
         in="SourceAlpha"
         surfaceScale="1"
         specularConstant="2"
         specularExponent="18.5"
         result="result1">
        <feDistantLight
           id="feDistantLight5326"
           elevation="30"
           azimuth="225" />
      </feSpecularLighting>
      <feComposite
         id="feComposite5328"
         in2="SourceGraphic"
         result="result0"
         operator="atop" />
      <feMorphology
         id="feMorphology5330"
         radius="2"
         result="result1"
         in="SourceAlpha"
         operator="dilate" />
      <feComposite
         id="feComposite5332"
         in2="result1"
         in="result0" />
    </filter>
    <filter
       id="filter5334"
       color-interpolation-filters="sRGB">
      <feSpecularLighting
         id="feSpecularLighting5336"
         in="SourceAlpha"
         surfaceScale="1"
         specularConstant="2"
         specularExponent="18.5"
         result="result1">
        <feDistantLight
           id="feDistantLight5338"
           elevation="30"
           azimuth="225" />
      </feSpecularLighting>
      <feComposite
         id="feComposite5340"
         in2="SourceGraphic"
         result="result0"
         operator="atop" />
      <feMorphology
         id="feMorphology5342"
         radius="2"
         result="result1"
         in="SourceAlpha"
         operator="dilate" />
      <feComposite
         id="feComposite5344"
         in2="result1"
         in="result0" />
    </filter>
    <filter
       id="filter5376"
       x="0"
       y="0"
       width="1"
       height="1"
       color-interpolation-filters="sRGB">
      <feColorMatrix
         id="feColorMatrix5378"
         values="1"
         in="SourceGraphic"
         type="saturate"
         result="result2" />
      <feFlood
         id="feFlood5380"
         flood-color="rgb(254,102,0)"
         flood-opacity="1"
         result="result1" />
      <feBlend
         id="feBlend5382"
         in2="result2"
         mode="multiply"
         in="result1"
         result="result3" />
      <feComposite
         id="feComposite5384"
         in2="SourceGraphic"
         operator="in"
         k2="1"
         result="result4" />
    </filter>
    <path
       style="fill:#ffffff;fill-opacity:1;stroke:#0000ed;stroke-width:2.26864314;stroke-miterlimit:4;stroke-opacity:1;stroke-dasharray:none"
       id="path6910-3"
       d="m 743.52603,474.25363 a 368.35236,357.55188 0 1 1 -8e-5,-0.24167"
       transform="matrix(0.02521472,0.76913412,-0.79236715,0.02597639,706.58062,76.178207)" />
    <path
       style="fill:#ffffff;fill-opacity:1;stroke:#0000ed;stroke-width:2.26864314;stroke-miterlimit:4;stroke-opacity:1;stroke-dasharray:none"
       id="path6910-38"
       d="m 743.52603,474.25363 a 368.35236,357.55188 0 1 1 -8e-5,-0.24167"
       transform="matrix(0.02521472,0.76913412,-0.79236715,0.02597639,706.58062,76.178207)" />
    <filter
       color-interpolation-filters="sRGB"
       x="0"
       y="0"
       width="1"
       height="1"
       id="filter5299">
      <feColorMatrix
         result="result1"
         values="0"
         type="saturate"
         id="feColorMatrix5301" />
      <feFlood
         result="result2"
         flood-color="rgb(9,111,152)"
         id="feFlood5303" />
      <feBlend
         result="result2"
         mode="screen"
         in2="result1"
         id="feBlend5305" />
      <feComposite
         in="result2"
         operator="in"
         in2="SourceGraphic"
         id="feComposite5307" />
    </filter>
    <linearGradient
       gradientUnits="userSpaceOnUse"
       y2="474.25363"
       x2="744.66035"
       y1="474.25363"
       x1="5.686998"
       id="linearGradient5625"
       xlink:href="#linearGradient5619" />
    <filter
       color-interpolation-filters="sRGB"
       id="filter7095">
      <feGaussianBlur
         stdDeviation="3"
         id="feGaussianBlur7097" />
    </filter>
    <radialGradient
       gradientUnits="userSpaceOnUse"
       gradientTransform="matrix(-0.68529274,-0.39209185,-0.39875522,0.69693888,794.16814,146.54689)"
       r="369.48669"
       fy="528.89227"
       fx="343.52554"
       cy="528.89227"
       cx="343.52554"
       id="radialGradient4061"
       xlink:href="#linearGradient4027" />
    <filter
       id="filter5322-0"
       color-interpolation-filters="sRGB">
      <feSpecularLighting
         id="feSpecularLighting5324-8"
         in="SourceAlpha"
         surfaceScale="1"
         specularConstant="2"
         specularExponent="18.5"
         result="result1">
        <feDistantLight
           id="feDistantLight5326-9"
           elevation="30"
           azimuth="225" />
      </feSpecularLighting>
      <feComposite
         id="feComposite5328-6"
         in2="SourceGraphic"
         result="result0"
         operator="atop" />
      <feMorphology
         id="feMorphology5330-3"
         radius="2"
         result="result1"
         in="SourceAlpha"
         operator="dilate" />
      <feComposite
         id="feComposite5332-0"
         in2="result1"
         in="result0" />
    </filter>
    <filter
       id="filter5322-6"
       color-interpolation-filters="sRGB">
      <feSpecularLighting
         id="feSpecularLighting5324-83"
         in="SourceAlpha"
         surfaceScale="1"
         specularConstant="2"
         specularExponent="18.5"
         result="result1">
        <feDistantLight
           id="feDistantLight5326-92"
           elevation="30"
           azimuth="225" />
      </feSpecularLighting>
      <feComposite
         id="feComposite5328-67"
         in2="SourceGraphic"
         result="result0"
         operator="atop" />
      <feMorphology
         id="feMorphology5330-0"
         radius="2"
         result="result1"
         in="SourceAlpha"
         operator="dilate" />
      <feComposite
         id="feComposite5332-8"
         in2="result1"
         in="result0" />
    </filter>
    <filter
       id="filter5322-4"
       color-interpolation-filters="sRGB">
      <feSpecularLighting
         id="feSpecularLighting5324-2"
         in="SourceAlpha"
         surfaceScale="1"
         specularConstant="2"
         specularExponent="18.5"
         result="result1">
        <feDistantLight
           id="feDistantLight5326-96"
           elevation="30"
           azimuth="225" />
      </feSpecularLighting>
      <feComposite
         id="feComposite5328-1"
         in2="SourceGraphic"
         result="result0"
         operator="atop" />
      <feMorphology
         id="feMorphology5330-04"
         radius="2"
         result="result1"
         in="SourceAlpha"
         operator="dilate" />
      <feComposite
         id="feComposite5332-2"
         in2="result1"
         in="result0" />
    </filter>
    <filter
       id="filter5322-5"
       color-interpolation-filters="sRGB">
      <feSpecularLighting
         id="feSpecularLighting5324-1"
         in="SourceAlpha"
         surfaceScale="1"
         specularConstant="2"
         specularExponent="18.5"
         result="result1">
        <feDistantLight
           id="feDistantLight5326-7"
           elevation="30"
           azimuth="225" />
      </feSpecularLighting>
      <feComposite
         id="feComposite5328-5"
         in2="SourceGraphic"
         result="result0"
         operator="atop" />
      <feMorphology
         id="feMorphology5330-7"
         radius="2"
         result="result1"
         in="SourceAlpha"
         operator="dilate" />
      <feComposite
         id="feComposite5332-1"
         in2="result1"
         in="result0" />
    </filter>
    <filter
       color-interpolation-filters="sRGB"
       id="filter4020">
      <feGaussianBlur
         result="result0"
         in="SourceAlpha"
         stdDeviation="2"
         id="feGaussianBlur4022" />
      <feComposite
         k3="10"
         k2="1"
         in="SourceGraphic"
         operator="arithmetic"
         result="result3"
         in2="result0"
         id="feComposite4024" />
      <feComposite
         result="result4"
         in="result3"
         operator="in"
         k2="1"
         in2="result3"
         id="feComposite4026" />
    </filter>
    <filter
       id="filter5322-53"
       color-interpolation-filters="sRGB">
      <feSpecularLighting
         id="feSpecularLighting5324-21"
         in="SourceAlpha"
         surfaceScale="1"
         specularConstant="2"
         specularExponent="18.5"
         result="result1">
        <feDistantLight
           id="feDistantLight5326-97"
           elevation="30"
           azimuth="225" />
      </feSpecularLighting>
      <feComposite
         id="feComposite5328-68"
         in2="SourceGraphic"
         result="result0"
         operator="atop" />
      <feMorphology
         id="feMorphology5330-2"
         radius="2"
         result="result1"
         in="SourceAlpha"
         operator="dilate" />
      <feComposite
         id="feComposite5332-06"
         in2="result1"
         in="result0" />
    </filter>
    <filter
       id="filter5322-9"
       color-interpolation-filters="sRGB">
      <feSpecularLighting
         id="feSpecularLighting5324-6"
         in="SourceAlpha"
         surfaceScale="1"
         specularConstant="2"
         specularExponent="18.5"
         result="result1">
        <feDistantLight
           id="feDistantLight5326-0"
           elevation="30"
           azimuth="225" />
      </feSpecularLighting>
      <feComposite
         id="feComposite5328-2"
         in2="SourceGraphic"
         result="result0"
         operator="atop" />
      <feMorphology
         id="feMorphology5330-76"
         radius="2"
         result="result1"
         in="SourceAlpha"
         operator="dilate" />
      <feComposite
         id="feComposite5332-13"
         in2="result1"
         in="result0" />
    </filter>
    <filter
       color-interpolation-filters="sRGB"
       id="filter3225">
      <feGaussianBlur
         result="result0"
         in="SourceAlpha"
         stdDeviation="2"
         id="feGaussianBlur3227" />
      <feComposite
         k3="10"
         k2="1"
         in="SourceGraphic"
         operator="arithmetic"
         result="result3"
         in2="result0"
         id="feComposite3229" />
      <feComposite
         result="result4"
         in="result3"
         operator="in"
         k2="1"
         in2="result3"
         id="feComposite3231" />
    </filter>
    <filter
       id="filter5322-2"
       color-interpolation-filters="sRGB">
      <feSpecularLighting
         id="feSpecularLighting5324-60"
         in="SourceAlpha"
         surfaceScale="1"
         specularConstant="2"
         specularExponent="18.5"
         result="result1">
        <feDistantLight
           id="feDistantLight5326-6"
           elevation="30"
           azimuth="225" />
      </feSpecularLighting>
      <feComposite
         id="feComposite5328-64"
         in2="SourceGraphic"
         result="result0"
         operator="atop" />
      <feMorphology
         id="feMorphology5330-6"
         radius="2"
         result="result1"
         in="SourceAlpha"
         operator="dilate" />
      <feComposite
         id="feComposite5332-28"
         in2="result1"
         in="result0" />
    </filter>
    <path
       transform="matrix(-0.02521472,0.76913412,0.79236715,0.02597639,-26.065588,872.04176)"
       d="m 743.52603,474.25363 a 368.35236,357.55188 0 1 1 -8e-5,-0.24167"
       id="path3017"
       style="fill:#ffffff;fill-opacity:1;stroke:#0000ed;stroke-width:2.26819968;stroke-miterlimit:4;stroke-opacity:1;stroke-dasharray:none" />
    <path
       transform="matrix(-0.02521472,0.76913412,0.79236715,0.02597639,-26.065588,872.04176)"
       d="m 743.52603,474.25363 a 368.35236,357.55188 0 1 1 -8e-5,-0.24167"
       id="path3017-4"
       style="fill:#ffffff;fill-opacity:1;stroke:#0000ed;stroke-width:2.26819968;stroke-miterlimit:4;stroke-opacity:1;stroke-dasharray:none" />
    <filter
       id="filter5322-2-3"
       color-interpolation-filters="sRGB">
      <feSpecularLighting
         id="feSpecularLighting5324-60-4"
         in="SourceAlpha"
         surfaceScale="1"
         specularConstant="2"
         specularExponent="18.5"
         result="result1">
        <feDistantLight
           id="feDistantLight5326-6-1"
           elevation="30"
           azimuth="225" />
      </feSpecularLighting>
      <feComposite
         id="feComposite5328-64-6"
         in2="SourceGraphic"
         result="result0"
         operator="atop" />
      <feMorphology
         id="feMorphology5330-6-6"
         radius="2"
         result="result1"
         in="SourceAlpha"
         operator="dilate" />
      <feComposite
         id="feComposite5332-28-2"
         in2="result1"
         in="result0" />
    </filter>
    <filter
       id="filter5310-0"
       color-interpolation-filters="sRGB">
      <feSpecularLighting
         id="feSpecularLighting5312-3"
         in="SourceAlpha"
         surfaceScale="1"
         specularConstant="2"
         specularExponent="18.5"
         result="result1">
        <feDistantLight
           id="feDistantLight5314-4"
           elevation="30"
           azimuth="225" />
      </feSpecularLighting>
      <feComposite
         id="feComposite5316-6"
         in2="SourceGraphic"
         result="result0"
         operator="atop" />
      <feMorphology
         id="feMorphology5318-4"
         radius="2"
         result="result1"
         in="SourceAlpha"
         operator="dilate" />
      <feComposite
         id="feComposite5320-3"
         in2="result1"
         in="result0" />
    </filter>
    <filter
       id="filter5322-56"
       color-interpolation-filters="sRGB">
      <feSpecularLighting
         id="feSpecularLighting5324-9"
         in="SourceAlpha"
         surfaceScale="1"
         specularConstant="2"
         specularExponent="18.5"
         result="result1">
        <feDistantLight
           id="feDistantLight5326-75"
           elevation="30"
           azimuth="225" />
      </feSpecularLighting>
      <feComposite
         id="feComposite5328-9"
         in2="SourceGraphic"
         result="result0"
         operator="atop" />
      <feMorphology
         id="feMorphology5330-9"
         radius="2"
         result="result1"
         in="SourceAlpha"
         operator="dilate" />
      <feComposite
         id="feComposite5332-02"
         in2="result1"
         in="result0" />
    </filter>
    <path
       style="fill:url(#radialGradient4061-4);fill-opacity:1;stroke:#0000ed;stroke-width:3.39039659999999987;stroke-miterlimit:4;stroke-opacity:1;stroke-dasharray:none"
       id="path6910-0"
       d="m 743.52603,474.25363 a 368.35236,357.55188 0 1 1 -8e-5,-0.24167"
       transform="matrix(0.02189948,0.66800836,-0.68818672,0.022561,658.41645,161.73768)" />
    <radialGradient
       gradientUnits="userSpaceOnUse"
       gradientTransform="matrix(-0.23080646,-1.1245495,1.1782068,-0.22784642,-232.7278,971.89407)"
       r="369.48669"
       fy="528.89227"
       fx="343.52554"
       cy="528.89227"
       cx="343.52554"
       id="radialGradient4061-4"
       xlink:href="#linearGradient4027-4" />
    <linearGradient
       id="linearGradient4027-4">
      <stop
         id="stop4029-6"
         offset="0"
         style="stop-color:#ffffff;stop-opacity:1" />
      <stop
         style="stop-color:#ffcc00;stop-opacity:1"
         offset="0.7465983"
         id="stop4063-4" />
      <stop
         id="stop4031-7"
         offset="1"
         style="stop-color:#ff6600;stop-opacity:1" />
    </linearGradient>
    <radialGradient
       r="369.48669"
       fy="528.89227"
       fx="343.52554"
       cy="528.89227"
       cx="343.52554"
       gradientTransform="matrix(-0.23080646,-1.1245495,1.1782068,-0.22784642,-232.7278,971.89407)"
       gradientUnits="userSpaceOnUse"
       id="radialGradient3477"
       xlink:href="#linearGradient4027-4" />
    <radialGradient
       r="369.48669"
       fy="528.89227"
       fx="343.52554"
       cy="528.89227"
       cx="343.52554"
       gradientTransform="matrix(-0.23080646,-1.1245495,1.1782068,-0.22784642,-232.7278,971.89407)"
       gradientUnits="userSpaceOnUse"
       id="radialGradient3358"
       xlink:href="#linearGradient4027-4" />
    <radialGradient
       r="369.48669"
       fy="528.89227"
       fx="343.52554"
       cy="528.89227"
       cx="343.52554"
       gradientTransform="matrix(-0.23080646,-1.1245495,1.1782068,-0.22784642,-232.7278,971.89407)"
       gradientUnits="userSpaceOnUse"
       id="radialGradient3444"
       xlink:href="#linearGradient4027-4" />
    <radialGradient
       r="369.48669"
       fy="528.89227"
       fx="343.52554"
       cy="528.89227"
       cx="343.52554"
       gradientTransform="matrix(0.76884549,-0.17955161,0.182603,0.78191155,1672.6635,-605.26943)"
       gradientUnits="userSpaceOnUse"
       id="radialGradient3529"
       xlink:href="#linearGradient4027-4" />
    <filter
       id="filter5322-2-1"
       style="color-interpolation-filters:sRGB">
      <feSpecularLighting
         result="result1"
         specularExponent="18.5"
         specularConstant="2"
         surfaceScale="1"
         in="SourceAlpha"
         id="feSpecularLighting5324-60-5">
        <feDistantLight
           azimuth="225"
           elevation="30"
           id="feDistantLight5326-6-0" />
      </feSpecularLighting>
      <feComposite
         operator="atop"
         result="result0"
         in2="SourceGraphic"
         id="feComposite5328-64-8" />
      <feMorphology
         operator="dilate"
         in="SourceAlpha"
         result="result1"
         radius="2"
         id="feMorphology5330-6-3" />
      <feComposite
         in="result0"
         in2="result1"
         id="feComposite5332-28-5" />
    </filter>
    <filter
       id="filter5310-6"
       style="color-interpolation-filters:sRGB">
      <feSpecularLighting
         result="result1"
         specularExponent="18.5"
         specularConstant="2"
         surfaceScale="1"
         in="SourceAlpha"
         id="feSpecularLighting5312-5">
        <feDistantLight
           azimuth="225"
           elevation="30"
           id="feDistantLight5314-9" />
      </feSpecularLighting>
      <feComposite
         operator="atop"
         result="result0"
         in2="SourceGraphic"
         id="feComposite5316-9" />
      <feMorphology
         operator="dilate"
         in="SourceAlpha"
         result="result1"
         radius="2"
         id="feMorphology5318-0" />
      <feComposite
         in="result0"
         in2="result1"
         id="feComposite5320-7" />
    </filter>
    <filter
       id="filter5322-63"
       style="color-interpolation-filters:sRGB">
      <feSpecularLighting
         result="result1"
         specularExponent="18.5"
         specularConstant="2"
         surfaceScale="1"
         in="SourceAlpha"
         id="feSpecularLighting5324-7">
        <feDistantLight
           azimuth="225"
           elevation="30"
           id="feDistantLight5326-61" />
      </feSpecularLighting>
      <feComposite
         operator="atop"
         result="result0"
         in2="SourceGraphic"
         id="feComposite5328-50" />
      <feMorphology
         operator="dilate"
         in="SourceAlpha"
         result="result1"
         radius="2"
         id="feMorphology5330-65" />
      <feComposite
         in="result0"
         in2="result1"
         id="feComposite5332-08" />
    </filter>
    <radialGradient
       xlink:href="#linearGradient4027"
       id="radialGradient4061-1"
       cx="343.52554"
       cy="528.89227"
       fx="343.52554"
       fy="528.89227"
       r="369.48669"
       gradientTransform="matrix(-0.66037383,-0.43274542,-0.44009966,0.67159649,761.26262,189.68768)"
       gradientUnits="userSpaceOnUse" />
    <filter
       id="filter5322-22"
       style="color-interpolation-filters:sRGB">
      <feSpecularLighting
         id="feSpecularLighting5324-3"
         in="SourceAlpha"
         surfaceScale="1"
         specularConstant="2"
         specularExponent="18.5"
         result="result1">
        <feDistantLight
           id="feDistantLight5326-2"
           elevation="30"
           azimuth="225" />
      </feSpecularLighting>
      <feComposite
         id="feComposite5328-0"
         in2="SourceGraphic"
         result="result0"
         operator="atop" />
      <feMorphology
         id="feMorphology5330-5"
         radius="2"
         result="result1"
         in="SourceAlpha"
         operator="dilate" />
      <feComposite
         id="feComposite5332-4"
         in2="result1"
         in="result0" />
    </filter>
    <filter
       id="filter5310-3"
       style="color-interpolation-filters:sRGB">
      <feSpecularLighting
         id="feSpecularLighting5312-17"
         in="SourceAlpha"
         surfaceScale="1"
         specularConstant="2"
         specularExponent="18.5"
         result="result1">
        <feDistantLight
           id="feDistantLight5314-1"
           elevation="30"
           azimuth="225" />
      </feSpecularLighting>
      <feComposite
         id="feComposite5316-2"
         in2="SourceGraphic"
         result="result0"
         operator="atop" />
      <feMorphology
         id="feMorphology5318-54"
         radius="2"
         result="result1"
         in="SourceAlpha"
         operator="dilate" />
      <feComposite
         id="feComposite5320-9"
         in2="result1"
         in="result0" />
    </filter>
    <filter
       id="filter5322-2-6"
       style="color-interpolation-filters:sRGB">
      <feSpecularLighting
         id="feSpecularLighting5324-60-29"
         in="SourceAlpha"
         surfaceScale="1"
         specularConstant="2"
         specularExponent="18.5"
         result="result1">
        <feDistantLight
           id="feDistantLight5326-6-7"
           elevation="30"
           azimuth="225" />
      </feSpecularLighting>
      <feComposite
         id="feComposite5328-64-5"
         in2="SourceGraphic"
         result="result0"
         operator="atop" />
      <feMorphology
         id="feMorphology5330-6-9"
         radius="2"
         result="result1"
         in="SourceAlpha"
         operator="dilate" />
      <feComposite
         id="feComposite5332-28-0"
         in2="result1"
         in="result0" />
    </filter>
  </defs>
  <metadata
     id="metadata7">
    <rdf:RDF>
      <cc:Work
         rdf:about="">
        <dc:format>image/svg+xml</dc:format>
        <dc:type
           rdf:resource="http://purl.org/dc/dcmitype/StillImage" />
        <dc:title />
      </cc:Work>
    </rdf:RDF>
  </metadata>
  <g
     inkscape:groupmode="layer"
     id="layer2"
     inkscape:label="fond"
     sodipodi:insensitive="true"
     style="display:none">
    <rect
       style="fill:#6d6d6d;fill-opacity:1;fill-rule:evenodd;stroke:#000000;stroke-width:0.95578581px;stroke-linecap:butt;stroke-linejoin:miter;stroke-opacity:1"
       id="rect193"
       width="789.6131"
       height="1113.051"
       x="9.490736"
       y="-0.022103803" />
    <circle
       style="opacity:1;vector-effect:none;fill:none;fill-opacity:1;fill-rule:evenodd;stroke:#ffffff;stroke-width:3.05628157px;stroke-linecap:butt;stroke-linejoin:miter;stroke-miterlimit:4;stroke-dasharray:none;stroke-dashoffset:0;stroke-opacity:1"
       id="path1007"
       cx="484.75766"
       cy="816.88232"
       r="152.81407" />
  </g>
  <g
     inkscape:groupmode="layer"
     id="layer3"
     inkscape:label="niv1">
    <g
       style="display:inline;stroke:#000000;stroke-opacity:1;stroke-width:0.4;stroke-miterlimit:4;stroke-dasharray:none"
       id="layer1">
      <flowRoot
         transform="matrix(1.16651,0,0,1.0040262,30.203963,64.281192)"
         style="font-style:normal;font-weight:normal;line-height:0.01%;font-family:sans-serif;letter-spacing:0px;word-spacing:0px;writing-mode:tb-rl;display:inline;fill:#000000;fill-opacity:1;stroke:#000000;stroke-width:0.36960959;stroke-linecap:butt;stroke-linejoin:miter;stroke-opacity:1;stroke-miterlimit:4;stroke-dasharray:none"
         id="flowRoot4155"
         xml:space="preserve"><flowRegion
           style="font-family:sans-serif;stroke:#000000;stroke-opacity:1;stroke-width:0.36960959;stroke-miterlimit:4;stroke-dasharray:none"
           id="flowRegion4157"><rect
             style="font-family:sans-serif;stroke:#000000;stroke-opacity:1;stroke-width:0.36960959;stroke-miterlimit:4;stroke-dasharray:none"
             y="594.15698"
             x="26.162951"
             height="43.840622"
             width="147.07822"
             id="rect4159" /></flowRegion><flowPara
           style="font-size:40px;line-height:1.25;font-family:sans-serif;stroke:#000000;stroke-opacity:1;stroke-width:0.36960959;stroke-miterlimit:4;stroke-dasharray:none"
           id="flowPara4161"> </flowPara></flowRoot>      <path
         id="path209"
         d="m 471.20311,514.7378 c -0.4398,-0.0437 -0.86572,-0.18488 -1.15686,-0.38342 -0.25344,-0.17284 -0.70633,-0.4403 -1.00642,-0.59436 -0.69052,-0.3545 -0.92342,-0.58126 -4.02946,-3.92331 -0.92072,-0.99067 -0.9025,-0.89816 -0.92088,-4.67658 l -0.0164,-3.36856 0.33028,-0.77781 c 0.40938,-0.96409 0.40319,-1.4696 -0.0297,-2.43263 -0.22634,-0.50343 -0.37986,-1.12093 -0.46239,-1.85972 -0.15618,-1.39809 -0.16426,-1.42114 -0.67784,-1.93504 -0.36589,-0.36611 -0.53048,-0.43425 -1.13897,-0.47171 -0.65975,-0.0406 -0.72734,-0.0187 -0.9328,0.30158 -0.82184,1.28137 -3.22209,4.50407 -3.63484,4.88035 -0.30327,0.27647 -0.32891,0.13648 -0.11428,-0.62389 0.11828,-0.41902 0.39497,-0.93716 0.69987,-1.31062 0.27735,-0.3397 0.50342,-0.66812 0.50241,-0.72982 -10e-4,-0.0617 0.20814,-0.39222 0.46478,-0.73449 0.48422,-0.64574 0.52794,-0.7508 0.6383,-1.53363 0.0365,-0.25872 0.22099,-0.68496 0.41002,-0.9472 0.25397,-0.35233 0.35909,-0.66848 0.40264,-1.21104 0.17763,-2.21253 0.26785,-2.89216 0.43033,-3.24142 0.0988,-0.21239 0.17837,-0.46453 0.1768,-0.5603 -0.002,-0.0958 0.20041,-0.6423 0.44886,-1.21447 0.43039,-0.9912 0.49892,-1.07524 1.45085,-1.77933 1.02951,-0.76147 1.67099,-1.01253 2.63937,-1.033 1.08733,-0.023 1.45659,-0.75012 0.92358,-1.81874 -0.19148,-0.38388 -0.39646,-0.56566 -0.88645,-0.78604 -0.35056,-0.15767 -1.21417,-0.57655 -1.91911,-0.93085 -0.70495,-0.35429 -1.85696,-0.90735 -2.56002,-1.229 -1.89625,-0.8676 -3.19702,-1.55847 -4.65717,-2.47356 -0.71899,-0.4506 -1.69611,-0.97061 -2.17138,-1.15558 -0.6162,-0.23983 -1.0819,-0.54124 -1.6233,-1.05067 -0.41758,-0.39289 -0.80479,-0.78777 -0.86049,-0.8775 -0.0557,-0.0898 -0.31698,-0.30341 -0.58062,-0.47482 -0.35002,-0.22757 -0.59775,-0.55206 -0.91818,-1.20262 -0.53058,-1.07726 -0.84977,-1.32815 -1.55926,-1.22559 -1.19814,0.17321 -3.45414,0.63402 -4.06658,0.83063 -0.96363,0.30938 -2.22314,0.61659 -3.2108,0.78315 -0.47584,0.0803 -1.00494,0.20511 -1.17578,0.27747 -0.51569,0.21841 -1.58504,1.15309 -1.76,1.53833 -0.0902,0.1987 -0.22355,0.47812 -0.29626,0.6209 -0.0727,0.14279 -0.43094,0.95967 -0.79604,1.81528 -0.36511,0.85563 -0.77983,1.7603 -0.92159,2.0104 -0.14176,0.25011 -0.32404,0.68313 -0.40505,0.96228 -0.081,0.27914 -0.39843,1.03744 -0.70534,1.6851 -0.30692,0.64764 -0.74994,1.70209 -0.98449,2.3432 -0.23456,0.6411 -0.54568,1.42827 -0.6914,1.74927 -0.7793,1.71668 -0.82421,2.53436 -0.19089,3.47483 0.20926,0.31076 0.37154,0.74834 0.41635,1.12273 0.0453,0.37886 0.18455,0.75102 0.36394,0.97304 0.35444,0.43865 0.35593,0.47386 0.0484,1.14422 -0.13543,0.29518 -0.26935,0.87401 -0.29761,1.28628 -0.045,0.65668 -0.0112,0.812 0.27256,1.25298 0.17817,0.27687 0.42062,0.92554 0.53877,1.4415 0.11817,0.51595 0.35388,1.32982 0.5238,1.80858 0.38435,1.08293 0.40521,1.65576 0.0943,2.58996 -0.20869,0.62711 -0.23906,1.01177 -0.21162,2.68026 0.0521,3.16925 -0.20272,4.15456 -1.21398,4.69384 -0.27461,0.14643 -0.63743,0.40906 -0.80627,0.58362 -0.40669,0.42043 -1.20412,0.53266 -4.10601,0.57783 -1.2623,0.0197 -2.45891,0.0904 -2.65913,0.15705 -0.20021,0.0667 -0.68048,0.31853 -1.06726,0.55956 -0.70016,0.43633 -0.71283,0.43884 -2.88686,0.57313 -1.20099,0.0742 -2.94364,0.20714 -3.87254,0.29548 -2.80573,0.2668 -7.89227,0.42996 -8.51375,0.27306 -0.30029,-0.0758 -1.64054,-0.17582 -2.97833,-0.22225 -2.57946,-0.0895 -2.97206,-0.16328 -3.20106,-0.60143 -0.28938,-0.55373 -0.0642,-1.0839 0.77782,-1.83139 0.88766,-0.78801 1.60263,-1.32392 2.12977,-1.59639 0.19768,-0.10218 0.45993,-0.31001 0.58276,-0.46187 0.12284,-0.15186 0.52651,-0.40234 0.89704,-0.55663 0.37054,-0.15428 0.83461,-0.41511 1.03127,-0.57961 0.19665,-0.16448 0.59999,-0.43538 0.89629,-0.60196 0.29631,-0.1666 0.74516,-0.49693 0.99746,-0.73409 0.25229,-0.23715 0.65521,-0.5333 0.89537,-0.6581 0.50859,-0.26431 2.05202,-1.8056 2.20447,-2.20142 0.0573,-0.14888 0.19295,-0.50389 0.30134,-0.78889 0.69413,-1.82504 0.99059,-2.49987 1.22472,-2.78779 0.42091,-0.51761 0.52779,-0.84505 0.51571,-1.57996 -0.009,-0.57057 -0.0729,-0.7643 -0.37408,-1.14108 -0.44946,-0.56226 -0.46514,-0.63377 -0.65828,-3.00179 -0.0911,-1.11729 -0.3011,-2.56953 -0.49888,-3.45043 -0.31446,-1.40054 -0.33121,-1.59423 -0.21128,-2.4436 0.0716,-0.50737 0.16444,-1.59072 0.20624,-2.40745 0.0418,-0.81675 0.16078,-1.77828 0.2644,-2.13672 0.17739,-0.6137 0.17502,-0.68867 -0.0407,-1.28441 -0.33202,-0.91704 -0.81554,-1.13812 -2.67203,-1.22178 -0.78792,-0.0355 -1.70527,-0.11512 -2.03856,-0.17694 -0.33329,-0.0618 -1.26027,-0.22372 -2.05996,-0.35976 -3.41111,-0.58034 -4.23645,-0.75659 -5.57615,-1.19081 -0.63709,-0.2065 -1.28,-0.3743 -1.42871,-0.37289 -0.14871,9.5e-4 -0.81682,-0.16383 -1.48471,-0.36718 -0.66789,-0.20333 -1.70541,-0.4748 -2.30562,-0.60323 -0.6002,-0.12845 -1.58341,-0.40346 -2.18491,-0.61114 -0.60151,-0.2077 -1.57055,-0.48397 -2.15344,-0.61392 -0.58289,-0.12996 -1.34768,-0.34794 -1.69953,-0.48439 -0.58688,-0.22759 -2.97561,-0.84857 -6.34159,-1.64855 -2.85938,-0.67959 -6.96966,-2.30987 -11.51328,-4.56657 -1.04969,-0.52136 -2.00817,-0.94581 -2.12997,-0.94322 -0.12179,0.003 -0.84802,0.46294 -1.61384,1.02304 -1.29563,0.94759 -1.87636,1.33752 -3.15138,2.11598 -0.27515,0.16799 -1.27005,1.08274 -2.21089,2.03277 -0.94084,0.95001 -2.22094,2.10528 -2.84466,2.56722 -0.62372,0.46196 -1.37995,1.0811 -1.68052,1.37584 -0.47867,0.46941 -2.15912,1.88393 -2.89183,2.43418 -1.35102,1.01462 -2.80955,2.02531 -3.59392,2.49042 -0.52285,0.31003 -1.54417,1.02432 -2.26959,1.58731 -1.50043,1.16444 -1.97494,1.45315 -3.01887,1.83679 -0.40731,0.1497 -1.10434,0.51421 -1.54897,0.81005 -0.44463,0.29583 -0.88416,0.53905 -0.97673,0.54048 -0.23698,0.004 -2.1477,1.14785 -2.71994,1.62874 -0.26219,0.22036 -0.85097,0.78677 -1.30839,1.25873 -0.45742,0.47194 -1.41687,1.41768 -2.13211,2.10165 -2.89443,2.76784 -2.84082,2.71167 -3.92778,4.11552 -1.06153,1.37099 -1.80795,2.25137 -2.39167,2.82091 -0.31537,0.3077 -1.1345,1.15551 -1.82029,1.88402 -0.68579,0.72851 -1.80801,1.91916 -2.49383,2.64589 -0.83115,0.88074 -1.44334,1.41456 -1.83591,1.60089 -0.32393,0.15376 -0.84964,0.49025 -1.16825,0.74779 -0.31861,0.25753 -0.87611,0.55585 -1.23888,0.66292 -0.83549,0.24661 -4.46502,2.3004 -5.29784,2.99782 -0.34621,0.28992 -0.79215,0.75358 -0.99097,1.03034 -0.4173,0.5809 -1.82805,1.55362 -2.263,1.56035 -0.16269,0.003 -0.78224,0.15818 -1.37678,0.3459 -1.41562,0.44697 -3.53013,0.91415 -4.51373,0.99726 -0.69253,0.0585 -0.83436,0.0289 -1.21242,-0.25324 -0.23548,-0.17572 -0.70247,-0.4692 -1.03775,-0.65219 -0.33528,-0.18297 -0.99206,-0.71109 -1.45952,-1.1736 -0.46745,-0.4625 -1.00631,-0.99341 -1.19745,-1.17978 -0.28941,-0.28217 -0.34929,-0.4442 -0.35792,-0.96847 -0.008,-0.50379 0.0811,-0.79756 0.4475,-1.47021 0.25182,-0.46236 0.51665,-1.10028 0.58853,-1.4176 0.0719,-0.31733 0.30771,-0.86946 0.52409,-1.22696 0.21638,-0.35751 0.47996,-1.00874 0.58573,-1.44716 0.11727,-0.48609 0.31474,-0.92571 0.50606,-1.12661 0.46388,-0.48711 1.96778,-1.26634 2.75061,-1.42523 1.74653,-0.35444 2.05427,-0.44551 2.72737,-0.80693 0.39524,-0.21223 1.03103,-0.51331 1.41286,-0.66907 0.38184,-0.15576 0.92036,-0.4718 1.19671,-0.7023 0.27636,-0.23052 0.74456,-0.57586 1.04046,-0.76743 1.92824,-1.24838 4.15656,-2.98749 4.94477,-3.85916 0.26434,-0.29233 0.88148,-0.79372 1.37144,-1.1142 l 0.89083,-0.58267 1.69546,-0.11489 c 0.9325,-0.0632 1.78983,-0.12069 1.90518,-0.12778 0.23556,-0.0144 0.68658,-0.46078 2.65413,-2.62638 1.92771,-2.12175 2.14143,-2.37529 2.30978,-2.74019 0.47657,-1.03293 3.47316,-4.80825 5.17452,-6.51925 0.3361,-0.338 1.81941,-1.87219 4.46672,-4.61994 0.84034,-0.87223 1.6428,-1.67007 1.78323,-1.77299 0.14043,-0.10292 0.81668,-0.76782 1.50278,-1.47757 0.6861,-0.70974 1.48833,-1.52141 1.78273,-1.80371 0.29441,-0.2823 0.98236,-0.94337 1.5288,-1.46905 0.54643,-0.52569 1.1738,-1.08832 1.39414,-1.25026 0.22034,-0.16196 0.45471,-0.40671 0.52082,-0.54389 0.0661,-0.13717 0.32258,-0.38377 0.56992,-0.548 0.24735,-0.16422 0.74396,-0.59064 1.10359,-0.9476 1.38803,-1.37774 1.63006,-1.60206 1.97063,-1.82643 0.1934,-0.12742 0.64679,-0.4681 1.00754,-0.75706 0.36074,-0.28897 0.95245,-0.67709 1.3149,-0.86248 0.36245,-0.18539 0.88767,-0.59876 1.16716,-0.91858 0.27949,-0.31983 0.57558,-0.58256 0.65798,-0.58384 0.0824,-9.5e-4 0.46833,-0.38868 0.85762,-0.86088 1.1459,-1.39 1.62488,-1.88199 1.83541,-1.88525 0.10892,-0.002 0.51935,-0.11748 0.91206,-0.25735 0.39272,-0.13986 1.11762,-0.35825 1.61089,-0.48533 0.94332,-0.24304 1.86948,-0.77854 3.25543,-1.8823 0.43644,-0.34756 1.10187,-0.86851 1.47875,-1.15767 1.01627,-0.77974 2.3387,-1.84725 2.67706,-2.16103 0.16364,-0.15175 0.67263,-0.61017 1.13109,-1.01871 0.45847,-0.40855 1.14653,-1.0403 1.52903,-1.40389 0.98444,-0.93576 1.86059,-1.75545 2.52641,-2.36359 0.31554,-0.2882 0.89737,-0.85073 1.29297,-1.25005 0.3956,-0.39933 0.98716,-0.96758 1.31458,-1.26281 0.86481,-0.77977 6.17924,-6.49998 7.04351,-7.58131 0.21661,-0.27101 0.71456,-0.93234 1.10656,-1.46964 0.39201,-0.5373 0.96432,-1.27056 1.27181,-1.62947 0.68009,-0.79383 2.14575,-2.95545 2.42676,-3.57909 0.11248,-0.24965 0.38543,-0.72841 0.60655,-1.0639 0.28389,-0.43071 0.42054,-0.80577 0.465,-1.27621 0.0864,-0.91395 0.9258,-2.31375 1.89929,-3.1672 0.40359,-0.35382 0.86925,-0.8392 1.03481,-1.07861 0.16555,-0.23942 0.45731,-0.52469 0.64835,-0.63392 0.45123,-0.25803 0.58833,-0.82976 0.56415,-2.35261 -0.02,-1.26111 0.0839,-1.69366 0.47103,-1.96025 0.59303,-0.40839 2.05192,-1.80067 2.66257,-2.541 0.93946,-1.13897 1.28383,-1.99666 1.26028,-3.13883 -0.0102,-0.49566 -0.0691,-1.33504 -0.13076,-1.86532 -0.1119,-0.96174 -0.11115,-0.96578 0.30039,-1.62318 0.25082,-0.40065 0.4654,-0.95618 0.54732,-1.41691 0.0959,-0.53936 0.23854,-0.87211 0.49472,-1.15406 0.49338,-0.54303 0.67638,-1.0991 0.6614,-2.00978 -0.0142,-0.86691 -0.16071,-1.03644 -0.8857,-1.02522 -0.62241,0.01 -1.16472,-0.19074 -1.61101,-0.59527 -0.26831,-0.2432 -0.60673,-0.39865 -0.98705,-0.45341 -0.45957,-0.0661 -0.72602,-0.21713 -1.2938,-0.73308 -0.39328,-0.35738 -0.77273,-0.82581 -0.84323,-1.04098 -0.0705,-0.21517 -0.35097,-0.67634 -0.62326,-1.02482 -0.2723,-0.34848 -0.65984,-0.8431 -0.86122,-1.09914 -0.20137,-0.25604 -0.48463,-0.67164 -0.62946,-0.92355 -0.14483,-0.2519 -0.44621,-0.6468 -0.66973,-0.87753 -0.53636,-0.55368 -0.62323,-1.22424 -0.56627,-4.37128 0.0573,-3.16318 0.36748,-6.17201 0.68756,-6.66827 0.28506,-0.44199 0.28662,-0.54383 0.0196,-1.28278 -0.21917,-0.60663 -1.3436,-1.92856 -1.89463,-2.2274 -0.16995,-0.0922 -0.51534,-0.20552 -0.76754,-0.2519 -0.2522,-0.0464 -0.71611,-0.26669 -1.0309,-0.48961 -0.3148,-0.22291 -0.85253,-0.4994 -1.19497,-0.61441 -0.37965,-0.12752 -0.77372,-0.38047 -1.00982,-0.6482 -0.21296,-0.2415 -0.57338,-0.51853 -0.80093,-0.61563 -0.22754,-0.0971 -0.47832,-0.30017 -0.55729,-0.45126 -0.079,-0.15109 -0.38925,-0.38234 -0.68954,-0.5139 -0.30028,-0.13155 -0.7244,-0.43445 -0.94248,-0.6731 -0.29851,-0.32666 -0.53801,-0.45427 -0.96908,-0.51633 -0.34949,-0.0504 -0.74429,-0.22328 -1.01333,-0.44392 -0.55958,-0.45893 -0.81254,-0.50084 -2.99919,-0.497 -1.7435,0.003 -1.80217,-0.006 -1.99856,-0.30005 -0.11129,-0.16678 -0.41016,-0.52686 -0.66417,-0.80018 -0.254,-0.27333 -0.5421,-0.69228 -0.6402,-0.93101 -0.23732,-0.5775 -1.27633,-1.20357 -1.98209,-1.19433 -0.44486,0.006 -0.53288,0.0591 -0.7552,0.45727 -0.22848,0.40917 -0.24279,0.56655 -0.15536,1.70878 0.053,0.69195 0.1525,1.66288 0.22118,2.15763 0.0687,0.49476 0.20395,2.13996 0.30058,3.65601 0.0966,1.51605 0.25983,3.22311 0.36265,3.79347 0.23764,1.31821 0.24987,1.67337 0.13335,3.87108 -0.10895,2.05489 0.09,3.91588 0.5774,5.39993 0.2039,0.62091 0.31572,2.35379 0.17262,2.67514 -0.0701,0.15739 -0.14564,0.54724 -0.16788,0.86632 -0.0533,0.76416 -0.4977,2.46477 -0.71244,2.72625 -0.0933,0.11362 -0.24629,0.50009 -0.33994,0.85884 -0.16286,0.62387 -0.15579,0.69894 0.16255,1.72526 0.62858,2.02654 0.5641,3.16503 -0.24669,4.35546 -0.26647,0.39124 -0.46697,0.83454 -0.46529,1.02869 0.005,0.54075 -0.37021,1.31865 -1.04214,2.16242 -0.34172,0.42912 -0.69646,0.94074 -0.78832,1.13695 -0.19066,0.40725 -0.35522,0.4439 -0.74121,0.16515 -0.33486,-0.24185 -0.34554,-0.50619 -0.0498,-1.2335 0.12634,-0.31072 0.22902,-0.67955 0.22818,-0.81963 -10e-4,-0.20364 -0.0744,-0.15731 -0.36483,0.23102 -0.35566,0.47551 -0.67409,0.59448 -1.12227,0.41928 -0.23883,-0.0934 -0.24678,-0.41796 -0.0184,-0.75104 0.23159,-0.33777 0.21591,-0.46168 -0.0579,-0.45744 -0.12524,0.002 -0.31436,0.14975 -0.42028,0.32846 -0.10592,0.17872 -0.30541,0.32669 -0.44332,0.32882 -0.13792,0.002 -0.4357,0.1011 -0.66174,0.21992 -0.36493,0.19182 -0.43463,0.19487 -0.62194,0.0273 -0.36548,-0.32697 -0.94329,-0.36326 -1.18087,-0.0742 -0.11512,0.14008 -0.31359,0.25631 -0.44104,0.25829 -0.34071,0.006 -0.22707,-0.40968 0.16989,-0.62041 0.55729,-0.29579 0.35469,-0.67554 -0.35456,-0.66456 -0.16066,0.003 -0.2912,0.0598 -0.29009,0.12723 0.004,0.22302 -1.38883,0.79766 -1.95882,0.80834 -0.19635,0.003 -0.21238,-0.0724 -0.14871,-0.70528 0.0392,-0.39018 0.0405,-0.70894 0.003,-0.70835 -0.0378,5.8e-4 -0.20744,0.0712 -0.3771,0.15689 -0.39838,0.20125 -0.62977,0.009 -0.44647,-0.37171 0.11541,-0.23949 0.0743,-0.26234 -0.59842,-0.33291 -0.61102,-0.0641 -0.72298,-0.11496 -0.72652,-0.33006 -0.003,-0.15278 0.11557,-0.30501 0.2958,-0.38136 0.26287,-0.11133 0.29871,-0.20402 0.28974,-0.74937 -0.006,-0.34788 0.0662,-0.73376 0.16301,-0.875 0.23535,-0.34325 0.21992,-0.52314 -0.0808,-0.94206 -0.24504,-0.34137 -0.24883,-0.38949 -0.0869,-1.10078 0.15944,-0.70022 0.14085,-1.10434 -0.0507,-1.10138 -0.0463,7.2e-4 -0.26808,0.21193 -0.49286,0.46936 -0.47573,0.54482 -1.05151,0.91097 -1.19349,0.75895 -0.0545,-0.0583 0.10442,-0.63073 0.35307,-1.27206 0.53317,-1.37518 0.55047,-1.58395 0.14422,-1.74124 -0.29714,-0.11504 -0.30342,-0.14168 -0.24113,-1.02334 0.0454,-0.64235 0.0239,-0.9046 -0.0742,-0.90308 -0.076,9.5e-4 -0.13522,0.17976 -0.13165,0.39685 0.0134,0.81155 -0.51153,1.24875 -0.65918,0.54907 -0.16904,-0.80104 -0.39234,-1.38972 -0.61391,-1.61845 -0.22802,-0.23537 -0.23999,-0.23546 -0.39408,-0.003 -0.0874,0.13192 -0.15582,0.44605 -0.15205,0.69807 0.009,0.62407 -0.18286,1.36391 -0.40768,1.56925 -0.28786,0.26292 -0.39172,-0.0351 -0.33692,-0.96699 0.0579,-0.98428 -0.14593,-1.22841 -0.40866,-0.48951 -0.30279,0.85155 -0.41566,1.04484 -0.71268,1.22052 -0.38333,0.22672 -0.65424,-0.003 -0.40159,-0.34034 0.15356,-0.20512 0.1433,-0.20911 -0.13283,-0.0517 -0.4256,0.24261 -0.84379,0.68105 -0.95354,0.99971 -0.0577,0.16755 -0.24503,0.30775 -0.48464,0.36273 -0.21481,0.0493 -0.5655,0.23649 -0.77931,0.41602 -0.2138,0.17953 -0.47464,0.29899 -0.57964,0.26547 -0.10501,-0.0335 -0.27906,-0.0892 -0.3868,-0.12382 -0.15877,-0.051 -0.16821,-0.0996 -0.0498,-0.25679 0.12072,-0.1603 0.1056,-0.19329 -0.0872,-0.19031 -0.12831,0.002 -0.33943,-0.0765 -0.46916,-0.17428 -0.22445,-0.16929 -0.22591,-0.18999 -0.0301,-0.42822 0.11315,-0.13767 0.20444,-0.32855 0.20286,-0.42417 -0.002,-0.0956 0.10952,-0.56898 0.24687,-1.05192 l 0.24972,-0.87807 -0.26651,-0.61181 c -0.14659,-0.33649 -0.30445,-0.9184 -0.35081,-1.29314 -0.0464,-0.37472 -0.51457,-1.93218 -1.04045,-3.46103 l -0.95614,-2.77969 -0.14716,-2.38021 c -0.14879,-2.40645 -0.1755,-2.58992 -0.6454,-4.43301 -0.1439,-0.56442 -0.33489,-1.43074 -0.42442,-1.92517 -0.0895,-0.49443 -0.26975,-1.18706 -0.4005,-1.53919 -0.13074,-0.35213 -0.27433,-0.95841 -0.31907,-1.34728 -0.0448,-0.38888 -0.35792,-1.57205 -0.69593,-2.62928 -0.33802,-1.05722 -0.65139,-2.09551 -0.69639,-2.3073 -0.045,-0.2118 -0.36774,-0.972 -0.71721,-1.68934 l -0.63541,-1.30425 -0.0577,-3.32121 c -0.0357,-2.05303 -0.0108,-3.44966 0.065,-3.65765 0.0675,-0.18504 0.27586,-0.52116 0.46312,-0.7469 0.18725,-0.22574 0.3985,-0.65798 0.46944,-0.96054 0.0709,-0.30255 0.31106,-0.78471 0.53359,-1.07148 0.22253,-0.28677 0.49118,-0.70841 0.597,-0.93699 0.10581,-0.22858 0.37043,-0.50918 0.58803,-0.62356 0.26885,-0.14131 0.53734,-0.47639 0.8378,-1.04555 0.42866,-0.812 0.44614,-0.89818 0.57195,-2.82055 0.0714,-1.09063 0.1915,-2.23866 0.26692,-2.55119 0.0754,-0.31254 0.12908,-0.99128 0.11923,-1.50832 -0.0235,-1.23444 0.0588,-1.29536 1.76091,-1.30312 0.69772,-0.003 1.36855,-0.0681 1.49073,-0.14435 0.12219,-0.0762 0.36157,-0.4247 0.53197,-0.77441 0.30228,-0.62038 0.32344,-0.63605 0.86978,-0.64451 0.51564,-0.008 0.61578,-0.0673 1.26509,-0.74837 0.48683,-0.51069 0.86963,-0.79031 1.23645,-0.90314 0.29222,-0.0899 0.59383,-0.18283 0.67025,-0.20656 0.0764,-0.0238 0.17435,-0.23594 0.21764,-0.47159 0.11218,-0.61064 0.19796,-0.68906 1.11522,-1.01948 l 0.82155,-0.29594 0.8055,0.25134 c 0.44303,0.13825 0.93142,0.32378 1.08531,0.4123 0.27175,0.15632 1.4008,1.39095 2.32572,2.54323 0.37925,0.47247 0.58313,0.60312 1.22113,0.78257 0.42123,0.11848 1.04017,0.36309 1.37541,0.54357 l 0.60952,0.32816 3.68534,0.009 c 3.83368,0.01 3.9429,0.0235 4.54643,0.58918 0.13821,0.12955 0.57499,0.34856 0.97062,0.48669 0.39564,0.13812 0.85933,0.38881 1.03042,0.55707 0.62229,0.61201 2.87403,1.32534 5.28747,1.67501 1.5004,0.21739 1.84135,0.22677 2.96158,0.0815 0.69628,-0.0904 1.65432,-0.16051 2.12897,-0.15599 1.05126,0.01 1.4469,-0.21825 2.1359,-1.23227 0.25866,-0.38068 0.51,-0.72432 0.55852,-0.76364 0.71444,-0.57887 2.55152,-2.66535 2.77112,-3.14731 0.15282,-0.3354 0.38911,-0.6494 0.52508,-0.69777 0.13598,-0.0483 0.37543,-0.31262 0.53211,-0.58722 l 0.28488,-0.49926 0.84052,0.01 c 0.71534,0.008 0.88179,-0.0335 1.11753,-0.27708 0.15236,-0.15741 0.49352,-0.34552 0.75814,-0.41803 0.26463,-0.0725 0.75097,-0.25506 1.08077,-0.40568 0.32979,-0.15061 0.80897,-0.31227 1.06485,-0.35923 0.32314,-0.0593 0.63349,-0.25994 1.01621,-0.65696 0.30305,-0.31436 0.67353,-0.67846 0.82328,-0.8091 0.16963,-0.14797 0.33767,-0.52985 0.44574,-1.0129 0.12005,-0.53669 0.29849,-0.91781 0.57962,-1.23804 0.35015,-0.39884 0.41897,-0.58907 0.4989,-1.3791 0.10674,-1.05501 0.15529,-1.17317 0.68019,-1.65538 0.21277,-0.19546 0.38565,-0.42783 0.3842,-0.51638 -0.001,-0.0885 0.21155,-0.3791 0.47336,-0.64565 0.2618,-0.26656 0.55031,-0.6837 0.64113,-0.92698 0.10809,-0.28955 0.31932,-0.52432 0.61157,-0.67972 0.61269,-0.32578 0.7389,-0.58322 0.48289,-0.98496 -0.45253,-0.71013 -2.12936,-0.91255 -2.59184,-0.31288 -0.71612,0.92855 -0.61402,0.87883 -2.0565,1.00174 -1.14494,0.0975 -1.39405,0.0839 -1.65264,-0.0907 -0.16747,-0.11306 -0.3057,-0.27933 -0.30718,-0.3695 -10e-4,-0.0902 -0.27056,-0.70744 -0.59796,-1.37172 -0.48404,-0.98212 -0.67325,-1.24552 -1.01267,-1.40974 -0.51603,-0.24963 -0.63799,-0.55894 -0.43731,-1.10893 0.2024,-0.5547 0.12387,-0.72367 -0.46197,-0.99404 -0.91876,-0.42401 -1.46981,-1.39457 -1.31897,-2.32307 0.13829,-0.85122 -0.90897,-1.67927 -1.892,-1.49599 -0.39535,0.0737 -0.51687,0.0382 -0.77283,-0.22606 -0.32934,-0.33997 -0.38674,-0.74539 -0.18642,-1.31673 0.0703,-0.20049 0.13663,-0.88622 0.14742,-1.52387 0.0108,-0.63764 0.0997,-1.45035 0.19768,-1.80601 0.0979,-0.35568 0.17411,-0.84945 0.1693,-1.09727 -0.013,-0.66728 -0.42309,-1.48775 -0.85946,-1.71941 -0.65914,-0.34992 -0.74859,-0.62857 -0.9133,-2.8451 -0.13162,-1.77133 -0.1934,-2.12647 -0.4721,-2.71393 -0.37661,-0.79387 -0.57637,-0.94827 -1.66733,-1.28869 -0.87779,-0.27391 -0.99008,-0.39681 -1.13593,-1.24328 -0.0521,-0.30268 -0.22013,-0.70574 -0.37328,-0.8957 -0.41125,-0.51006 -0.522,-0.78278 -0.62503,-1.53922 -0.15238,-1.1187 -0.004,-2.18261 0.36962,-2.6544 0.17735,-0.22381 0.45647,-0.70241 0.62026,-1.06355 0.16379,-0.36113 0.38624,-0.73739 0.49434,-0.83612 0.1081,-0.0987 0.29357,-0.38773 0.41217,-0.64221 0.11859,-0.25447 0.50037,-0.76785 0.84839,-1.14082 0.51605,-0.55303 0.72172,-0.68688 1.11493,-0.72556 0.41367,-0.0407 0.50839,-0.10961 0.66682,-0.48512 0.22964,-0.54428 0.57435,-0.75481 1.43345,-0.87549 0.50969,-0.0716 0.79458,-0.20204 1.18613,-0.54308 0.28342,-0.24686 0.59042,-0.45 0.68221,-0.45142 0.0918,-9.5e-4 0.39302,-0.22985 0.66939,-0.50763 0.27638,-0.27778 0.69733,-0.57577 0.93545,-0.6622 0.23811,-0.0865 0.65249,-0.36396 0.92085,-0.61674 0.38883,-0.36625 0.67369,-0.5005 1.40266,-0.66097 0.98789,-0.21749 1.25128,-0.33476 1.50325,-0.66933 0.28721,-0.38136 0.73067,-0.47717 2.8244,-0.61018 1.82909,-0.11621 2.13288,-0.16858 2.79764,-0.48229 1.02338,-0.48297 1.84682,-0.48631 2.91322,-0.0119 0.60224,0.26796 1.13335,0.38806 2.05922,0.4657 1.15835,0.0971 1.27584,0.13283 1.64149,0.4987 0.21661,0.21674 0.58427,0.46029 0.81701,0.54123 0.25189,0.0876 0.80258,0.54969 1.36058,1.1417 0.51558,0.54701 0.98063,0.99389 1.03345,0.99307 0.15511,-0.003 1.52462,1.56213 1.61273,1.84238 0.0443,0.14098 0.23706,0.44143 0.42833,0.66766 0.19126,0.22625 0.43701,0.71256 0.54611,1.08071 0.1091,0.36815 0.34412,0.8858 0.52226,1.15034 0.18285,0.27154 0.43256,0.94302 0.57343,1.54201 0.13724,0.58357 0.38335,1.2618 0.5469,1.50717 0.48925,0.73402 0.56296,1.08879 0.59515,2.86458 0.0428,2.35844 0.2627,4.51411 0.55358,5.42575 0.13522,0.42378 0.29086,1.10659 0.34587,1.51737 0.0968,0.72256 0.0875,0.76106 -0.28452,1.18356 -0.37222,0.42273 -0.38251,0.46565 -0.32163,1.34139 0.0766,1.10273 0.30498,1.40868 1.28416,1.72078 0.40545,0.12924 0.80217,0.36329 0.99577,0.58747 0.40823,0.47272 0.86375,0.48147 1.25189,0.024 0.15804,-0.18625 0.44508,-0.42934 0.63787,-0.5402 0.48952,-0.28148 2.27708,-2.2041 2.7224,-2.92809 0.20333,-0.33056 0.71517,-1.08346 1.13742,-1.67313 0.42226,-0.58967 0.92636,-1.34584 1.12022,-1.68039 0.19386,-0.33455 0.89137,-1.22303 1.55004,-1.97439 1.57634,-1.79822 2.41678,-2.89962 3.47698,-4.55658 1.19057,-1.86071 2.23697,-3.6129 2.23485,-3.74223 -9.7e-4,-0.0587 0.22446,-0.40219 0.50096,-0.76318 0.57637,-0.75251 1.01559,-1.40744 2.09333,-3.12136 0.42095,-0.66943 0.96147,-1.52441 1.20115,-1.89996 0.41223,-0.64591 0.44126,-0.76254 0.53692,-2.15745 0.0571,-0.83189 0.0514,-2.48767 -0.0129,-3.79889 -0.12071,-2.4594 -0.17804,-2.6989 -0.85643,-3.5777 -0.26424,-0.34229 -0.27904,-0.46815 -0.31544,-2.68134 l -0.0382,-2.32219 0.40477,-0.37202 c 0.45945,-0.42226 0.63097,-1.17848 0.4993,-2.20141 -0.0832,-0.64643 0.0888,-1.1597 0.5382,-1.60668 0.14454,-0.14372 0.38815,-0.53626 0.54137,-0.87229 0.23775,-0.5214 0.35354,-0.63342 0.78995,-0.76424 0.68871,-0.20644 1.00351,-0.55975 1.29184,-1.44982 0.27749,-0.85664 0.64602,-1.21131 1.07856,-1.03801 0.36266,0.14529 1.3648,1.2258 1.62142,1.7482 0.11005,0.22401 0.2657,0.44904 0.34591,0.50009 0.0802,0.051 0.62209,0.0724 1.20419,0.0475 0.74103,-0.0317 1.16236,0.01 1.4052,0.13879 0.4324,0.22957 0.95158,1.18936 1.22511,2.26486 0.11475,0.45118 0.38151,1.13306 0.59281,1.5153 0.33217,0.60089 0.39922,0.87509 0.49524,2.02517 0.0857,1.02583 0.17411,1.43866 0.38661,1.80434 0.15154,0.26079 0.38249,0.89484 0.51321,1.40899 0.30553,1.20161 0.82745,1.98548 1.58387,2.37883 0.32095,0.16689 0.67275,0.44343 0.78177,0.61451 0.10903,0.17108 0.35148,0.34805 0.53879,0.39325 0.18731,0.0452 0.61483,0.22845 0.95004,0.40722 0.33521,0.17875 1.03882,0.42062 1.56359,0.53748 0.69375,0.15448 1.05903,0.31242 1.3386,0.57879 0.83923,0.7996 3.24817,2.45521 4.28057,2.94196 0.79042,0.37266 1.89052,1.12584 3.26541,2.23565 2.31108,1.8655 2.49342,2.00659 2.80059,2.16714 1.0836,0.56632 4.14327,3.37145 4.7527,4.35731 0.1695,0.2742 1.12086,1.4475 2.11412,2.60732 0.99326,1.15982 1.97077,2.33803 2.17222,2.61824 0.20146,0.2802 0.7551,0.9566 1.23032,1.50311 1.57097,1.80665 2.3035,2.8748 2.53294,3.69345 0.0947,0.33785 0.27893,0.75416 0.4094,0.92515 0.60595,0.79398 0.7836,3.20292 0.30586,4.14728 -1.30172,2.5731 -3.28874,4.64186 -6.76962,7.04816 -1.46887,1.0154 -1.74571,1.1664 -3.67488,2.00429 -1.05572,0.45854 -2.27009,1.00543 -2.6986,1.21532 -1.00512,0.49233 -3.33338,1.47766 -3.4976,1.48019 -0.0697,9.5e-4 -0.2966,0.0885 -0.50427,0.19439 -0.20767,0.10582 -0.75579,0.3376 -1.21805,0.51504 -0.46226,0.17744 -1.2181,0.50399 -1.67963,0.72566 -0.46154,0.22168 -1.05542,0.47755 -1.31974,0.56861 -0.26432,0.091 -0.9146,0.39278 -1.44507,0.67049 -0.53047,0.27771 -1.28623,0.60832 -1.67949,0.7347 -0.68611,0.2205 -1.09429,0.43974 -1.9418,1.04298 -0.52246,0.37188 -0.63723,0.9078 -0.47336,2.21053 0.0711,0.56554 0.20162,2.18618 0.28998,3.60142 0.0883,1.41524 0.19615,2.92033 0.23952,3.34465 0.33681,3.29442 0.35462,3.39599 0.72894,4.1542 0.20439,0.41403 0.52242,1.28868 0.70673,1.94368 0.1843,0.655 0.43887,1.39896 0.5657,1.65325 0.12684,0.25428 0.41255,1.0876 0.63492,1.85182 0.22237,0.76421 0.54211,1.70687 0.71053,2.09478 0.16842,0.38791 0.30763,0.79147 0.30936,0.89679 0.002,0.10532 0.22456,0.7756 0.49518,1.4895 0.27061,0.71391 0.63578,1.75942 0.8115,2.32334 0.17571,0.56392 0.66795,2.01116 1.09387,3.21606 0.42592,1.20492 0.89361,2.64648 1.03931,3.20348 0.14569,0.557 0.37033,1.19774 0.49919,1.42386 0.12886,0.22611 0.35748,0.83107 0.50803,1.34435 0.15056,0.51328 0.36639,1.07034 0.47963,1.2379 0.11324,0.16757 0.45696,0.69344 0.76382,1.16859 1.06651,1.65146 2.47857,3.75669 2.87875,4.29192 0.80506,1.07675 1.42827,2.02136 1.70487,2.58412 0.15549,0.31634 0.60627,1.07105 1.00174,1.67714 0.39549,0.6061 0.89252,1.43871 1.10453,1.85025 0.40158,0.7795 0.73172,1.33392 1.81276,3.04426 0.35468,0.56115 0.9083,1.5088 1.23026,2.10587 0.32196,0.59708 0.68557,1.19995 0.80802,1.33971 0.33515,0.38255 1.32455,2.22691 1.50735,2.80989 0.0884,0.28195 0.31535,0.80001 0.50431,1.15123 0.18896,0.35123 0.47297,1.07124 0.63115,1.60002 0.74814,2.50092 1.33761,4.23179 1.67972,4.93213 0.20604,0.42179 0.55941,1.25663 0.78527,1.85519 0.22585,0.59857 0.62132,1.57764 0.87882,2.17571 0.71188,1.65343 0.71404,1.61812 -0.15942,2.58989 -0.90272,1.0043 -1.63679,1.65146 -2.36296,2.0832 -0.29615,0.17607 -0.70812,0.44142 -0.91549,0.58969 -0.20738,0.14824 -0.66918,0.46787 -1.02623,0.71027 -0.79068,0.5368 -0.93663,0.79937 -1.50262,2.70308 -0.24458,0.82266 -0.57311,1.73856 -0.73008,2.03534 -0.43889,0.82985 -0.68355,1.95186 -0.60564,2.77753 0.0573,0.60783 0.12454,0.76496 0.43872,1.02602 0.33247,0.27628 2.23455,1.02023 4.59314,1.79653 1.0816,0.35598 5.81041,2.74486 6.31917,3.19226 0.21137,0.18589 0.68647,0.56208 1.05578,0.83597 1.86957,1.38658 4.58832,4.80365 4.9469,6.2175 0.0989,0.38979 0.14433,1.30961 0.13029,2.63536 -0.0182,1.71689 -0.0586,2.11582 -0.25726,2.5414 -0.12963,0.27766 -0.32733,0.825 -0.43933,1.2163 -0.112,0.3913 -0.43887,1.19515 -0.72638,1.78637 -0.28751,0.5912 -0.58814,1.34922 -0.66806,1.68452 -0.24966,1.04723 -1.71791,5.01511 -2.67042,7.21661 -0.43122,0.99671 -0.91167,2.46451 -1.24984,3.81844 -0.16872,0.67551 -0.48059,1.69449 -0.69306,2.26442 -0.384,1.03011 -0.66275,1.97601 -0.80061,2.71684 -0.0396,0.2131 -0.21862,0.76642 -0.39769,1.22959 -0.30806,0.79675 -1.08883,3.36477 -1.27857,4.20523 -0.0481,0.21324 -0.2732,0.89661 -0.50014,1.5186 -0.22695,0.62199 -0.41024,1.27588 -0.40733,1.45308 0.012,0.72732 1.1427,1.41088 3.78322,2.28706 0.50114,0.16629 1.43224,0.57887 2.06912,0.91683 0.63687,0.33796 1.56816,0.7619 2.06953,0.94208 1.05287,0.37838 4.10573,1.98193 5.17985,2.72078 0.65105,0.44783 2.92106,2.20905 3.9164,3.0386 0.20213,0.16846 0.99709,0.56806 1.76658,0.888 0.76948,0.31995 1.45651,0.6295 1.5267,0.68789 0.16588,0.13801 2.32603,1.05285 3.34092,1.41489 0.95886,0.34208 1.88578,0.79495 2.37703,1.16133 0.20082,0.14977 1.20582,0.55765 2.23332,0.90641 1.43201,0.48603 2.09757,0.6453 2.85063,0.68215 0.71961,0.0352 1.41582,0.19313 2.60243,0.59034 0.89099,0.29825 1.68617,0.54125 1.76706,0.54 0.22931,-0.004 2.28877,1.2862 2.69985,1.69081 0.20265,0.19945 0.92643,0.73609 1.60841,1.19251 0.91733,0.61394 1.50753,1.13477 2.2682,2.00158 1.72379,1.96431 2.05926,2.41926 2.15684,2.92494 0.11903,0.61677 -0.092,1.51643 -0.47262,2.01483 -0.16342,0.21399 -0.4065,0.62932 -0.54018,0.92295 -0.13368,0.29365 -0.42256,0.75417 -0.64194,1.02339 -0.21939,0.26921 -0.39761,0.56672 -0.39605,0.66112 0.004,0.26908 -1.09885,1.72882 -2.28104,3.01805 l -1.0781,1.17574 -0.61205,-0.0121 c -0.33663,-0.007 -0.95715,-0.026 -1.37895,-0.043 -0.88249,-0.0357 -0.80549,-0.10593 -2.03465,1.85597 -0.3809,0.60796 -1.20348,1.6928 -1.82794,2.41077 -1.22326,1.40644 -1.18619,1.32854 -1.8835,3.95704 -0.23586,0.88903 -0.49838,1.87828 -0.5834,2.19834 -0.085,0.32005 -0.27352,0.78022 -0.41888,1.02257 -0.14537,0.24235 -0.37028,0.63025 -0.49979,0.86198 -0.36513,0.65333 -2.27195,2.54176 -2.58463,2.5597 -3.96261,0.22732 -6.00485,0.25397 -6.44357,0.0841 -0.17011,-0.0658 -0.49117,-0.11693 -0.71346,-0.11349 -0.2223,0.004 -0.69621,-0.0999 -1.05314,-0.22968 -1.97414,-0.71767 -2.25632,-0.7744 -3.1061,-0.62441 -0.93823,0.1656 -1.3789,0.10666 -1.6681,-0.22309 -0.29226,-0.33325 -0.15947,-0.78829 0.43952,-1.50608 0.6465,-0.77472 1.05954,-0.95566 2.22277,-0.97366 0.81782,-0.0126 0.98322,-0.0537 1.17713,-0.29215 0.12409,-0.1526 0.60305,-0.46984 1.06436,-0.70499 0.46132,-0.23514 1.06024,-0.62822 1.33095,-0.87351 0.27071,-0.24529 0.66042,-0.54759 0.86603,-0.67181 0.40452,-0.24437 0.60587,-0.67837 0.5959,-1.28442 -0.006,-0.35786 0.14991,-0.5908 0.7553,-1.12937 0.26416,-0.23501 0.23718,-2.42094 -0.0348,-2.82063 -0.17058,-0.25066 -0.91043,-0.55583 -2.18978,-0.90323 -0.28167,-0.0765 -0.76378,-0.39008 -1.14844,-0.74703 l -0.66297,-0.61519 -0.10106,-1.1098 c -0.10962,-1.20379 -0.29792,-1.55367 -1.05313,-1.9569 -0.72622,-0.38776 -0.99195,-0.39701 -2.04274,-0.071 -1.61127,0.49984 -3.07916,0.70572 -3.81962,0.53569 -0.34212,-0.0786 -0.79726,-0.14012 -1.01144,-0.1368 -0.21417,0.003 -0.44451,-0.0508 -0.51187,-0.12038 -0.0674,-0.0695 -0.44494,-0.18477 -0.83909,-0.2561 -0.39415,-0.0713 -0.97751,-0.26534 -1.29635,-0.43115 -0.31886,-0.1658 -0.6782,-0.29993 -0.79855,-0.29807 -0.12035,0.002 -0.62839,-0.19875 -1.12898,-0.44581 -0.5006,-0.24705 -1.15654,-0.5517 -1.45764,-0.67698 -1.44356,-0.60058 -3.37656,-1.51931 -3.76763,-1.79069 -0.2394,-0.16615 -0.6286,-0.3637 -0.86489,-0.43899 -0.23628,-0.0753 -0.86651,-0.39296 -1.40054,-0.70593 -0.53401,-0.31297 -1.10766,-0.60173 -1.27476,-0.64168 -0.16711,-0.0399 -0.56246,-0.20521 -0.87859,-0.36727 -0.31611,-0.16205 -0.65684,-0.29336 -0.75717,-0.29181 -0.2822,0.005 -0.50881,0.49315 -0.7518,1.62157 -0.53362,2.47805 -1.05106,4.58544 -1.32137,5.38173 -0.16031,0.47219 -0.41112,1.34536 -0.55737,1.94037 -0.39585,1.61052 -0.99714,3.27615 -1.63017,4.51569 -0.96437,1.88835 -1.09344,2.22788 -1.43304,3.76987 -0.18157,0.82451 -0.4122,1.71893 -0.5125,1.98761 -0.26265,0.70359 -0.21561,1.2388 0.17453,1.98556 0.38228,0.73173 1.4802,2.12263 2.4804,3.14228 0.36165,0.3687 0.63676,0.74618 0.61134,0.83885 -0.0254,0.0927 -0.23827,0.27404 -0.47302,0.40301 -0.34728,0.19083 -0.79539,0.24581 -2.40508,0.29517 -1.08806,0.0334 -2.29151,0.0296 -2.67435,-0.009 z m -0.11286,-56.70565 c 0.22872,-0.10617 0.41983,-0.21054 0.4247,-0.23195 0.0118,-0.0518 0.26775,-2.81018 0.40961,-4.41422 0.0636,-0.71866 0.25466,-1.73832 0.4357,-2.32484 0.17736,-0.5746 0.35728,-1.24811 0.3998,-1.49667 0.0893,-0.52182 0.5649,-1.97471 0.81164,-2.47932 0.0926,-0.18944 0.16658,-0.45525 0.16436,-0.59069 -0.004,-0.21854 0.23039,-0.77879 0.85416,-2.04525 0.10546,-0.21413 0.19111,-0.44858 0.19032,-0.52101 -10e-4,-0.0724 0.17432,-0.42669 0.38911,-0.78722 0.21478,-0.36053 0.56903,-1.00142 0.7872,-1.42419 0.21817,-0.42277 0.68959,-1.09269 1.04759,-1.48872 1.55509,-1.72027 1.9628,-3.202 0.9422,-3.42428 -0.53221,-0.11591 -1.9439,0.19302 -2.59809,0.56854 -0.44243,0.25397 -0.88929,0.37163 -1.80457,0.47512 -2.74852,0.3108 -3.5356,0.55044 -3.78087,1.15109 -0.0852,0.20864 -0.11696,1.27223 -0.0893,2.98939 0.0358,2.24981 0.007,2.83678 -0.18797,3.76374 -0.40185,1.91083 -0.5616,3.11703 -0.63236,4.77475 -0.0726,1.7001 -0.22638,2.32295 -0.73949,2.99484 -0.28044,0.36722 -0.29591,0.47464 -0.27241,1.89225 0.0286,1.73719 0.19744,2.23285 0.88655,2.60552 0.52289,0.28278 1.76634,0.28968 2.36208,0.0131 z m -18.44941,-144.4685 c 0.73077,-0.0137 1.3917,-0.0699 1.46872,-0.12506 0.33552,-0.24006 1.35745,-0.35498 2.16215,-0.24314 0.96023,0.13346 5.63673,0.0903 6.65538,-0.0616 0.88143,-0.13131 1.23752,-0.48936 1.22531,-1.23204 -0.0133,-0.81131 -0.28846,-1.31405 -1.27101,-2.32243 -0.96671,-0.99216 -2.70956,-2.97432 -3.44379,-3.91665 -0.24538,-0.31494 -1.28916,-1.45783 -2.31948,-2.53975 -1.79351,-1.88332 -3.47303,-3.8782 -4.00218,-4.75364 -0.23546,-0.38953 -0.63937,-0.92421 -1.48771,-1.96924 -0.5519,-0.67987 -1.39156,-2.06367 -1.56152,-2.57348 -0.23115,-0.69329 -0.4586,-0.89001 -1.01907,-0.88132 -0.65755,0.0102 -0.90959,0.22667 -1.3223,1.13577 -0.1891,0.41656 -0.67534,1.30209 -1.08053,1.96786 -0.40519,0.66578 -0.92602,1.71698 -1.15741,2.33601 -0.60315,1.61362 -3.28903,10.68081 -3.41926,11.54299 -0.085,0.56297 0.14398,0.81343 0.97433,1.0656 0.35943,0.10915 0.75215,0.35948 1.03668,0.66078 0.43618,0.46186 0.62131,0.60163 1.80861,1.36543 0.7179,0.46182 3.45491,0.84152 4.76137,0.66054 0.36467,-0.0505 1.26094,-0.10303 1.99171,-0.11669 z m 3.62223,187.20974 c -0.005,-0.31851 0.32351,-0.73327 0.58441,-0.73731 0.17342,-0.003 0.0898,0.58742 -0.12342,0.87047 -0.20117,0.26711 -0.45561,0.19361 -0.46099,-0.13316 z"
         style="display:inline;fill:#ffffff;fill-opacity:1;stroke-width:0.4;stroke:#000000;stroke-opacity:1;stroke-miterlimit:4;stroke-dasharray:none" />
    </g>
  </g>
</svg>
